<?xml version="1.0" encoding="utf-8"?>
<!-- Generator: Adobe Illustrator 16.0.0, SVG Export Plug-In . SVG Version: 6.00 Build 0)  -->
<!DOCTYPE svg PUBLIC "-//W3C//DTD SVG 1.1//EN" "http://www.w3.org/Graphics/SVG/1.1/DTD/svg11.dtd">
<svg version="1.1" id="Layer_1" xmlns="http://www.w3.org/2000/svg" xmlns:xlink="http://www.w3.org/1999/xlink" x="0px" y="0px"
	 width="16px" height="16px" viewBox="0 0 16 16" enable-background="new 0 0 16 16" xml:space="preserve">
<g>
	<g>
		<path d="M15.586,7.597L9.193,1.204C8.927,0.938,8.567,0.789,8.192,0.789c-0.376,0-0.736,0.149-1.001,0.415L0.796,7.597
			C0.393,8.002,0.271,8.606,0.489,9.135c0.22,0.529,0.736,0.867,1.309,0.867h0.816v4.575c0,0.682,0.546,1.235,1.229,1.235h1.089
			V11.68c0-0.317,0.26-0.562,0.575-0.562h2.114c0.314,0,0.568,0.244,0.568,0.562v4.133h4.347c0.686,0,1.228-0.554,1.228-1.235
			v-4.575h0.82c0.571,0,1.088-0.338,1.309-0.867C16.111,8.606,15.99,8.002,15.586,7.597z"/>
	</g>
</g>
</svg>
